<svg width="25" height="24" viewBox="0 0 25 24" fill="none" xmlns="http://www.w3.org/2000/svg">
<path d="M19.8334 22H5.83337C5.03772 22 4.27466 21.6839 3.71205 21.1213C3.14944 20.5587 2.83337 19.7956 2.83337 19V3C2.83337 2.73478 2.93873 2.48043 3.12627 2.29289C3.3138 2.10536 3.56816 2 3.83337 2H17.8334C18.0986 2 18.3529 2.10536 18.5405 2.29289C18.728 2.48043 18.8334 2.73478 18.8334 3V10H22.8334V19C22.8334 19.7956 22.5173 20.5587 21.9547 21.1213C21.3921 21.6839 20.629 22 19.8334 22ZM18.8334 12V19C18.8334 19.2652 18.9387 19.5196 19.1263 19.7071C19.3138 19.8946 19.5682 20 19.8334 20C20.0986 20 20.3529 19.8946 20.5405 19.7071C20.728 19.5196 20.8334 19.2652 20.8334 19V12H18.8334ZM5.83337 6V12H11.8334V6H5.83337ZM5.83337 13V15H15.8334V13H5.83337ZM5.83337 16V18H15.8334V16H5.83337ZM7.83337 8H9.83337V10H7.83337V8Z" fill="#5250FF"/>
</svg>
