<svg width="100" height="100" viewBox="0 0 100 100" fill="none" xmlns="http://www.w3.org/2000/svg">
<path d="M99.5608 58C96.9187 81.8114 82.675 100 65.5 100C46.4462 100 31 77.6142 31 50C31 22.3858 46.4462 0 65.5 0C82.675 0 96.9187 18.1886 99.5608 42H84.4037C82.2637 27.0565 74.6116 16 65.5 16C54.7304 16 46 31.4462 46 50.5C46 69.5538 54.7304 85 65.5 85C74.8137 85 82.6024 73.4476 84.5379 58H99.5608Z" fill="#FFD375"/>
<path d="M60.0332 83.6258C53.7223 93.6851 44.62 100 34.5 100C15.4462 100 0 77.6142 0 50C0 22.3858 15.4462 0 34.5 0C44.8752 0 54.1807 6.63742 60.5052 17.1422C56.2645 19.1245 52.5898 23.5709 50 29.5632C46.4367 21.3184 40.8194 16 34.5 16C23.7304 16 15 31.4462 15 50.5C15 69.5538 23.7304 85 34.5 85C40.8194 85 46.4367 79.6816 50 71.4368C52.4932 77.2056 55.9919 81.5417 60.0332 83.6258Z" fill="#FFD375"/>
<path d="M34 0H66V16H34V0Z" fill="#FFD375"/>
<path d="M34 85H66V100H34V85Z" fill="#FFD375"/>
</svg>
