<?xml version="1.0" encoding="UTF-8"?><svg version="1.1" width="686px" height="688px" viewBox="0 0 686.0 688.0" xmlns="http://www.w3.org/2000/svg" xmlns:xlink="http://www.w3.org/1999/xlink"><defs><clipPath id="i0"><path d="M1024,0 L1024,1024 L0,1024 L0,0 L1024,0 Z"></path></clipPath><filter id="i1" x="-12.5%" y="-9.34579439%" filterUnits="userSpaceOnUse" width="115.625%" height="115.576324%"><feDropShadow stdDeviation="10" dx="-10" dy="10" flood-color="rgba(0, 0, 0, 0.5)"></feDropShadow></filter><clipPath id="i2"><path d="M207.822838,0 C311.282468,0 397.084385,109.495372 413,252.84 L321.695898,252.84 C308.804858,162.88013 262.709753,96.32 207.822838,96.32 C142.948379,96.32 90.3577555,189.306124 90.3577555,304.01 C90.3577555,418.713876 142.948379,511.7 207.822838,511.7 C263.927173,511.7 310.845136,442.154552 322.504298,349.16 L413,349.16 C397.084385,492.504628 311.282468,602 207.822838,602 C93.0455975,602 0,467.237484 0,301 C0,134.762516 93.0455975,0 207.822838,0 Z"></path></clipPath><linearGradient id="i3" x1="206.5px" y1="0px" x2="206.5px" y2="602px" gradientUnits="userSpaceOnUse"><stop stop-color="#F1ECEC" offset="0%"></stop><stop stop-color="#AEAEAE" offset="100%"></stop></linearGradient><clipPath id="i4"><path d="M394.82,0 C342.52724,94.5978787 311.187437,153.921367 300.800592,177.970464 C279.363737,128.336768 245.569994,96.32 207.552409,96.32 C142.762368,96.32 90.2401777,189.306124 90.2401777,304.01 C90.2401777,418.713876 142.762368,511.7 207.552409,511.7 C245.569994,511.7 279.363737,479.683232 300.800592,430.049536 C310.800006,453.201653 342.139809,510.518475 394.82,602 L207.552409,602 C92.9245222,602 0,467.237484 0,301 C0,134.762516 92.9245222,0 207.552409,0 L394.82,0 Z"></path></clipPath><linearGradient id="i5" x1="197.41px" y1="0px" x2="197.41px" y2="602px" gradientUnits="userSpaceOnUse"><stop stop-color="#F1ECEC" offset="0%"></stop><stop stop-color="#AEAEAE" offset="100%"></stop></linearGradient></defs><g transform="translate(-169.0 -168.0)"><g clip-path="url(#i0)"><g transform="translate(212.0 211.00000000000006)"><g filter="url(#i1)"><g transform="translate(187.0 -5.684341886080802e-14)"><g clip-path="url(#i2)"><polygon points="0,0 413,0 413,602 0,602 0,0" stroke="none" fill="url(#i3)"></polygon></g></g><g transform=""><g clip-path="url(#i4)"><polygon points="0,0 394.82,0 394.82,602 0,602 0,0" stroke="none" fill="url(#i5)"></polygon></g></g></g></g></g></g></svg>