<?xml version="1.0" encoding="UTF-8"?><svg version="1.1" width="48px" height="48px" viewBox="0 0 48.0 48.0" xmlns="http://www.w3.org/2000/svg" xmlns:xlink="http://www.w3.org/1999/xlink"><defs><clipPath id="i0"><path d="M24,0 C37.254834,-2.4348735e-15 48,10.745166 48,24 C48,37.254834 37.254834,48 24,48 C10.745166,48 1.623249e-15,37.254834 0,24 C-1.623249e-15,10.745166 10.745166,2.4348735e-15 24,0 Z"></path></clipPath><clipPath id="i1"><path d="M16,8 C17.103,8 18,8.897 18,10 L18,18 C18,19.103 17.103,20 16,20 L2,20 C0.897,20 0,19.103 0,18 L0,10 C0,8.897 0.897,8 2,8 Z M16,4 L16,6 L2,6 L2,4 L16,4 Z M14,0 L14,2 L4,2 L4,0 L14,0 Z"></path></clipPath></defs><g clip-path="url(#i0)"><polygon points="0,0 48,0 48,48 0,48 0,0" stroke="none" fill="#5250FF"></polygon></g><g transform="translate(15.0 14.0)"><g clip-path="url(#i1)"><polygon points="0,0 18,0 18,20 0,20 0,0" stroke="none" fill="#FFFFFF"></polygon></g></g></svg>