<svg width="21" height="20" viewBox="0 0 21 20" fill="none" xmlns="http://www.w3.org/2000/svg">
<path d="M14.6667 12C15.4937 12 16.1667 11.327 16.1667 10.5V1.5C16.1667 0.673 15.4937 0 14.6667 0H1.66675C0.839748 0 0.166748 0.673 0.166748 1.5V16L5.49975 12H14.6667ZM4.83375 10L2.16675 12V2H14.1667V10H4.83375Z" fill="#373737"/>
<path d="M18.6667 6H18.1667V12.001C18.1667 13.101 17.2737 13.994 16.1767 14H6.16675V14.5C6.16675 15.327 6.83975 16 7.66675 16H14.8337L20.1667 20V7.5C20.1667 6.673 19.4937 6 18.6667 6Z" fill="#373737"/>
</svg>
