<svg width="25" height="24" viewBox="0 0 25 24" fill="none" xmlns="http://www.w3.org/2000/svg">
<path d="M16.6666 14C17.4936 14 18.1666 13.327 18.1666 12.5V3.5C18.1666 2.673 17.4936 2 16.6666 2H3.66663C2.83963 2 2.16663 2.673 2.16663 3.5V18L7.49963 14H16.6666ZM6.83363 12L4.16663 14V4H16.1666V12H6.83363Z" fill="#373737"/>
<path d="M20.6666 8H20.1666V14.001C20.1666 15.101 19.2736 15.994 18.1766 16H8.16663V16.5C8.16663 17.327 8.83963 18 9.66663 18H16.8336L22.1666 22V9.5C22.1666 8.673 21.4936 8 20.6666 8Z" fill="#373737"/>
</svg>
