<svg width="25" height="24" viewBox="0 0 25 24" fill="none" xmlns="http://www.w3.org/2000/svg">
<path d="M16.8335 20V4H4.8335V19C4.8335 19.2652 4.93885 19.5196 5.12639 19.7071C5.31393 19.8946 5.56828 20 5.8335 20H16.8335ZM19.8335 22H5.8335C5.03785 22 4.27479 21.6839 3.71218 21.1213C3.14957 20.5587 2.8335 19.7956 2.8335 19V3C2.8335 2.73478 2.93885 2.48043 3.12639 2.29289C3.31393 2.10536 3.56828 2 3.8335 2H17.8335C18.0987 2 18.3531 2.10536 18.5406 2.29289C18.7281 2.48043 18.8335 2.73478 18.8335 3V10H22.8335V19C22.8335 19.7956 22.5174 20.5587 21.9548 21.1213C21.3922 21.6839 20.6291 22 19.8335 22ZM18.8335 12V19C18.8335 19.2652 18.9389 19.5196 19.1264 19.7071C19.3139 19.8946 19.5683 20 19.8335 20C20.0987 20 20.3531 19.8946 20.5406 19.7071C20.7281 19.5196 20.8335 19.2652 20.8335 19V12H18.8335ZM6.8335 6H12.8335V12H6.8335V6ZM8.8335 8V10H10.8335V8H8.8335ZM6.8335 13H14.8335V15H6.8335V13ZM6.8335 16H14.8335V18H6.8335V16Z" fill="#373737"/>
</svg>
